# xmcd CD database file
#
# Track frame offsets:
#	150
#	13144
#	25845
#	38818
#	51855
#	63316
#	76158
#	88640
#	100452
#	110971
#	123427
#	135472
#	146218
#	158175
#	174063
#	184168
#	195084
#	204713
#	219512
#	233429
#	245249
#	256864
#	270505
#	283696
#	295582
#	309049
#	320935
#	333293
#	344856
#
# Disc length: 4722 seconds
#
# Revision: 0
# Processed by: cddbd v1.5.2PL0 Copyright (c) Steve Scherf et al.
# Submitted via: CDex 1.51
#
DISCID=aa12701d
DTITLE=Frankie Lee Sims - Walking With Frankie
DYEAR=2016
DGENRE=Blues
TTITLE0=Cross Country Blues
TTITLE1=Home Again Blues
TTITLE2=Don`t Forget Me Baby
TTITLE3=Single Man Blues
TTITLE4=Lucy Mae Blues
TTITLE5=Don`t Take It Out On Me
TTITLE6=I`m Long, Long Gone
TTITLE7=Yeh Baby!
TTITLE8=Rhumba My Boogie
TTITLE9=I`ll Get Along Somehow
TTITLE10=Misery Blues
TTITLE11=What Will Lucy Do?
TTITLE12=Hey Little Girl
TTITLE13=Walking With Frankie
TTITLE14=My Talk Didn`t Do Any Good
TTITLE15=I Warned You Baby
TTITLE16=She Likes To Boogie Real Low
TTITLE17=Well Goodeye Baby
TTITLE18=Married Woman
TTITLE19=Wine And Gin Bounce
TTITLE20=Boogie Cross The Country
TTITLE21=Jelly Roll Baker
TTITLE22=I`m So Glad
TTITLE23=Ragged And Dirty
TTITLE24=No Good Woman
TTITLE25=Walking Boogie
TTITLE26=Cryin' Won`t Help You
TTITLE27=Hawk Shuffle
TTITLE28=How Long
EXTD=YEAR: 2016
EXTT0=
EXTT1=
EXTT2=
EXTT3=
EXTT4=
EXTT5=
EXTT6=
EXTT7=
EXTT8=
EXTT9=
EXTT10=
EXTT11=
EXTT12=
EXTT13=
EXTT14=
EXTT15=
EXTT16=
EXTT17=
EXTT18=
EXTT19=
EXTT20=
EXTT21=
EXTT22=
EXTT23=
EXTT24=
EXTT25=
EXTT26=
EXTT27=
EXTT28=
PLAYORDER=
